<svg xmlns="http://www.w3.org/2000/svg" xmlns:xlink="http://www.w3.org/1999/xlink" style="margin:auto;background:#eeeeee;display:block;z-index:1;position:relative" width="1084" height="322" preserveAspectRatio="xMidYMid" viewBox="0 0 1084 322">
  <defs>
    <pattern id="pid-0.07431760733723047" x="0" y="0" width="76.80000000000001" height="76.80000000000001" patternUnits="userSpaceOnUse">
      <g transform="scale(0.30000000000000004)">
  
  
  <defs><g id="id-0.389560900551829"><!--Generator: Adobe Illustrator 21.0.0, SVG Export Plug-In . SVG Version: 6.00 Build 0)--><style type="text/css">.st2{fill:#333}.st35,.st44{fill:none;stroke-width:3;stroke-miterlimit:10}.st35{stroke-linecap:round;stroke-linejoin:round;stroke:#77a4bd}.st44{stroke:#333}</style><g><path class="st35" d="M82.692,48.88c3.957-4.196,3.764-10.806-0.433-14.763" data-stroke="c1" style="stroke: rgb(119, 164, 189);"></path><path class="st35" d="M87.036,29.052c6.994,6.595,7.316,17.611,0.721,24.605" data-stroke="c1" style="stroke: rgb(119, 164, 189);"></path></g><g><path class="st35" d="M17.308,51.202c-3.957,4.196-3.764,10.806,0.433,14.763" data-stroke="c1" style="stroke: rgb(119, 164, 189);"></path><path class="st35" d="M12.964,71.03c-6.994-6.595-7.316-17.611-0.721-24.605" data-stroke="c1" style="stroke: rgb(119, 164, 189);"></path></g><path class="st44" d="M42.049,74.493L25.507,57.951c-0.677-0.677-0.677-1.774,0-2.45L55.5,25.507c0.677-0.677,1.774-0.677,2.45,0 l16.542,16.542c0.677,0.677,0.677,1.774,0,2.45L44.5,74.493C43.823,75.169,42.726,75.169,42.049,74.493z" data-stroke="c2" style="stroke: rgb(51, 51, 51);"></path><line class="st44" x1="32.87" y1="48.138" x2="51.862" y2="67.13" data-stroke="c2" style="stroke: rgb(51, 51, 51);"></line><ellipse transform="matrix(0.7071 -0.7071 0.7071 0.7071 -32.6977 45.0348)" class="st2" cx="38.013" cy="61.987" rx="3.25" ry="3.25" data-fill="c2" style="fill: rgb(51, 51, 51);"></ellipse><metadata xmlns:d="https://loading.io/stock/"><d:name>vibrate</d:name><d:tags>incoming,message,notify,alert,wifi,broadcast,sound,vibrate,communication</d:tags><d:license>by</d:license><d:slug>n99b4c</d:slug></metadata></g></defs>
  
  <!-- Generator: Adobe Illustrator 21.0.0, SVG Export Plug-In . SVG Version: 6.00 Build 0)  -->
  
  
  
  
  
  
  
  
  
  
  
  
  
  
  <g data-idx="0" data-dup="" dx="-128" dy="-128" style="transform-origin: 23px 21.9993px; animation: 1s linear 0s infinite normal forwards running beat-9624bb0d-def9-406c-922a-5fbd63db5a7d;"><g transform="translate(-128,-128)"><g transform=" translate(151,149.9995) scale(0.6222222222222222)"><g data-icon="" transform="scale(0.9)">  <use xlink:href="#id-0.389560900551829" x="-50" y="-50"></use>
  </g></g></g></g><g data-idx="0" data-dup="" dx="128" dy="-128" style="transform-origin: 279px 21.9993px; animation: 1s linear 0s infinite normal forwards running beat-9624bb0d-def9-406c-922a-5fbd63db5a7d;"><g transform="translate(128,-128)"><g transform=" translate(151,149.9995) scale(0.6222222222222222)"><g data-icon="" transform="scale(0.9)">  <use xlink:href="#id-0.389560900551829" x="-50" y="-50"></use>
  </g></g></g></g><g data-idx="1" data-dup="" dx="-128" dy="-128" style="transform-origin: 103.302px -6.91909px; animation: 1s linear 0s infinite normal forwards running beat-9624bb0d-def9-406c-922a-5fbd63db5a7d;"><g transform="translate(-128,-128)"><g transform="matrix(0.9628 0.2703 -0.2703 0.9628 41.3411 -58.0147) translate(231.293,121.08149999999999) scale(0.5214666666666667)"><g data-icon="" transform="scale(0.9)">  <use xlink:href="#id-0.389560900551829" x="-50" y="-50"></use>
  </g></g></g></g><g data-idx="1" data-dup="" dx="128" dy="-128" style="transform-origin: 359.302px -6.91909px; animation: 1s linear 0s infinite normal forwards running beat-9624bb0d-def9-406c-922a-5fbd63db5a7d;"><g transform="translate(128,-128)"><g transform="matrix(0.9628 0.2703 -0.2703 0.9628 41.3411 -58.0147) translate(231.293,121.08149999999999) scale(0.5214666666666667)"><g data-icon="" transform="scale(0.9)">  <use xlink:href="#id-0.389560900551829" x="-50" y="-50"></use>
  </g></g></g></g><g data-idx="2" data-dup="" dx="-128" dy="-128" style="transform-origin: 11.2832px -65.9161px; animation: 1s linear 0s infinite normal forwards running beat-9624bb0d-def9-406c-922a-5fbd63db5a7d;"><g transform="translate(-128,-128)"><g transform="matrix(-0.0456 0.999 -0.999 -0.0456 207.6542 -74.2389) translate(139.293,62.081500000000005) scale(0.5214666666666667)"><g data-icon="" transform="scale(0.9)">  <use xlink:href="#id-0.389560900551829" x="-50" y="-50"></use>
  </g></g></g></g><g data-idx="2" data-dup="" dx="128" dy="-128" style="transform-origin: 267.283px -65.9161px; animation: 1s linear 0s infinite normal forwards running beat-9624bb0d-def9-406c-922a-5fbd63db5a7d;"><g transform="translate(128,-128)"><g transform="matrix(-0.0456 0.999 -0.999 -0.0456 207.6542 -74.2389) translate(139.293,62.081500000000005) scale(0.5214666666666667)"><g data-icon="" transform="scale(0.9)">  <use xlink:href="#id-0.389560900551829" x="-50" y="-50"></use>
  </g></g></g></g><g data-idx="3" data-dup="" dx="-128" dy="-128" style="transform-origin: 76.0704px -99.7257px; animation: 1s linear 0s infinite normal forwards running beat-9624bb0d-def9-406c-922a-5fbd63db5a7d;"><g transform="translate(-128,-128)"><g transform="matrix(0.2398 -0.9708 0.9708 0.2398 127.6881 219.61) translate(204.074,28.271) scale(0.3916444444444444)"><g data-icon="" transform="scale(0.9)">  <use xlink:href="#id-0.389560900551829" x="-50" y="-50"></use>
  </g></g></g></g><g data-idx="3" data-dup="" dx="128" dy="-128" style="transform-origin: 332.07px -99.7257px; animation: 1s linear 0s infinite normal forwards running beat-9624bb0d-def9-406c-922a-5fbd63db5a7d;"><g transform="translate(128,-128)"><g transform="matrix(0.2398 -0.9708 0.9708 0.2398 127.6881 219.61) translate(204.074,28.271) scale(0.3916444444444444)"><g data-icon="" transform="scale(0.9)">  <use xlink:href="#id-0.389560900551829" x="-50" y="-50"></use>
  </g></g></g></g><g data-idx="4" data-dup="" dx="-128" dy="-128" style="transform-origin: 73.3084px 94.0839px; animation: 1s linear 0s infinite normal forwards running beat-9624bb0d-def9-406c-922a-5fbd63db5a7d;"><g transform="translate(-128,-128)"><g transform="matrix(0.5905 -0.8071 0.8071 0.5905 -96.797 253.4085) translate(201.293,222.0815) scale(0.5214666666666667)"><g data-icon="" transform="scale(0.9)">  <use xlink:href="#id-0.389560900551829" x="-50" y="-50"></use>
  </g></g></g></g><g data-idx="4" data-dup="" dx="128" dy="-128" style="transform-origin: 329.308px 94.0839px; animation: 1s linear 0s infinite normal forwards running beat-9624bb0d-def9-406c-922a-5fbd63db5a7d;"><g transform="translate(128,-128)"><g transform="matrix(0.5905 -0.8071 0.8071 0.5905 -96.797 253.4085) translate(201.293,222.0815) scale(0.5214666666666667)"><g data-icon="" transform="scale(0.9)">  <use xlink:href="#id-0.389560900551829" x="-50" y="-50"></use>
  </g></g></g></g><g data-idx="5" data-dup="" dx="-128" dy="-128" style="transform-origin: -19.4973px 79.1701px; animation: 1s linear 0s infinite normal forwards running beat-9624bb0d-def9-406c-922a-5fbd63db5a7d;"><g transform="translate(-128,-128)"><g transform="matrix(0.8618 0.5073 -0.5073 0.8618 120.0863 -26.4095) translate(108.50649999999999,207.1645) scale(0.44135555555555556)"><g data-icon="" transform="scale(0.9)">  <use xlink:href="#id-0.389560900551829" x="-50" y="-50"></use>
  </g></g></g></g><g data-idx="5" data-dup="" dx="128" dy="-128" style="transform-origin: 236.503px 79.1701px; animation: 1s linear 0s infinite normal forwards running beat-9624bb0d-def9-406c-922a-5fbd63db5a7d;"><g transform="translate(128,-128)"><g transform="matrix(0.8618 0.5073 -0.5073 0.8618 120.0863 -26.4095) translate(108.50649999999999,207.1645) scale(0.44135555555555556)"><g data-icon="" transform="scale(0.9)">  <use xlink:href="#id-0.389560900551829" x="-50" y="-50"></use>
  </g></g></g></g><g data-idx="6" data-dup="" dx="-128" dy="-128" style="transform-origin: -48.5432px -1.89078px; animation: 1s linear 0s infinite normal forwards running beat-9624bb0d-def9-406c-922a-5fbd63db5a7d;"><g transform="translate(-128,-128)"><g transform="matrix(0.9981 0.0609 -0.0609 0.9981 7.8271 -4.6047) translate(79.461,126.11449999999999) scale(0.43675555555555556)"><g data-icon="" transform="scale(0.9)">  <use xlink:href="#id-0.389560900551829" x="-50" y="-50"></use>
  </g></g></g></g><g data-idx="6" data-dup="" dx="128" dy="-128" style="transform-origin: 207.457px -1.89078px; animation: 1s linear 0s infinite normal forwards running beat-9624bb0d-def9-406c-922a-5fbd63db5a7d;"><g transform="translate(128,-128)"><g transform="matrix(0.9981 0.0609 -0.0609 0.9981 7.8271 -4.6047) translate(79.461,126.11449999999999) scale(0.43675555555555556)"><g data-icon="" transform="scale(0.9)">  <use xlink:href="#id-0.389560900551829" x="-50" y="-50"></use>
  </g></g></g></g><g data-idx="7" data-dup="" dx="-128" dy="-128" style="transform-origin: -67.5406px -95.8893px; animation: 1s linear 0s infinite normal forwards running beat-9624bb0d-def9-406c-922a-5fbd63db5a7d;"><g transform="translate(-128,-128)"><g transform="matrix(-0.7024 0.7118 -0.7118 -0.7024 125.7862 11.6317) translate(60.461,32.1145) scale(0.43675555555555556)"><g data-icon="" transform="scale(0.9)">  <use xlink:href="#id-0.389560900551829" x="-50" y="-50"></use>
  </g></g></g></g><g data-idx="7" data-dup="" dx="128" dy="-128" style="transform-origin: 188.459px -95.8893px; animation: 1s linear 0s infinite normal forwards running beat-9624bb0d-def9-406c-922a-5fbd63db5a7d;"><g transform="translate(128,-128)"><g transform="matrix(-0.7024 0.7118 -0.7118 -0.7024 125.7862 11.6317) translate(60.461,32.1145) scale(0.43675555555555556)"><g data-icon="" transform="scale(0.9)">  <use xlink:href="#id-0.389560900551829" x="-50" y="-50"></use>
  </g></g></g></g><g data-idx="8" data-dup="" dx="-128" dy="-128" style="transform-origin: -94.3946px -44.2717px; animation: 1s linear 0s infinite normal forwards running beat-9624bb0d-def9-406c-922a-5fbd63db5a7d;"><g transform="translate(-128,-128)"><g transform="matrix(0.8596 0.511 -0.511 0.8596 47.5053 -5.4135) translate(33.602,83.7265) scale(0.3879111111111111)"><g data-icon="" transform="scale(0.9)">  <use xlink:href="#id-0.389560900551829" x="-50" y="-50"></use>
  </g></g></g></g><g data-idx="8" data-dup="" dx="128" dy="-128" style="transform-origin: 161.605px -44.2717px; animation: 1s linear 0s infinite normal forwards running beat-9624bb0d-def9-406c-922a-5fbd63db5a7d;"><g transform="translate(128,-128)"><g transform="matrix(0.8596 0.511 -0.511 0.8596 47.5053 -5.4135) translate(33.602,83.7265) scale(0.3879111111111111)"><g data-icon="" transform="scale(0.9)">  <use xlink:href="#id-0.389560900551829" x="-50" y="-50"></use>
  </g></g></g></g><g data-idx="9" data-dup="" dx="-128" dy="-128" style="transform-origin: -83.8px 76.6331px; animation: 1s linear 0s infinite normal forwards running beat-9624bb0d-def9-406c-922a-5fbd63db5a7d;"><g transform="translate(-128,-128)"><g transform="matrix(0.5692 -0.8222 0.8222 0.5692 -149.2038 124.5031) translate(44.2025,204.6265) scale(0.5011777777777778)"><g data-icon="" transform="scale(0.9)">  <use xlink:href="#id-0.389560900551829" x="-50" y="-50"></use>
  </g></g></g></g><g data-idx="9" data-dup="" dx="128" dy="-128" style="transform-origin: 172.2px 76.6331px; animation: 1s linear 0s infinite normal forwards running beat-9624bb0d-def9-406c-922a-5fbd63db5a7d;"><g transform="translate(128,-128)"><g transform="matrix(0.5692 -0.8222 0.8222 0.5692 -149.2038 124.5031) translate(44.2025,204.6265) scale(0.5011777777777778)"><g data-icon="" transform="scale(0.9)">  <use xlink:href="#id-0.389560900551829" x="-50" y="-50"></use>
  </g></g></g></g><g data-idx="0" data-dup="" dx="-128" dy="128" style="transform-origin: 23px 277.999px; animation: 1s linear 0s infinite normal forwards running beat-9624bb0d-def9-406c-922a-5fbd63db5a7d;"><g transform="translate(-128,128)"><g transform=" translate(151,149.9995) scale(0.6222222222222222)"><g data-icon="" transform="scale(0.9)">  <use xlink:href="#id-0.389560900551829" x="-50" y="-50"></use>
  </g></g></g></g><g data-idx="0" data-dup="" dx="128" dy="128" style="transform-origin: 279px 277.999px; animation: 1s linear 0s infinite normal forwards running beat-9624bb0d-def9-406c-922a-5fbd63db5a7d;"><g transform="translate(128,128)"><g transform=" translate(151,149.9995) scale(0.6222222222222222)"><g data-icon="" transform="scale(0.9)">  <use xlink:href="#id-0.389560900551829" x="-50" y="-50"></use>
  </g></g></g></g><g data-idx="1" data-dup="" dx="-128" dy="128" style="transform-origin: 103.302px 249.081px; animation: 1s linear 0s infinite normal forwards running beat-9624bb0d-def9-406c-922a-5fbd63db5a7d;"><g transform="translate(-128,128)"><g transform="matrix(0.9628 0.2703 -0.2703 0.9628 41.3411 -58.0147) translate(231.293,121.08149999999999) scale(0.5214666666666667)"><g data-icon="" transform="scale(0.9)">  <use xlink:href="#id-0.389560900551829" x="-50" y="-50"></use>
  </g></g></g></g><g data-idx="1" data-dup="" dx="128" dy="128" style="transform-origin: 359.302px 249.081px; animation: 1s linear 0s infinite normal forwards running beat-9624bb0d-def9-406c-922a-5fbd63db5a7d;"><g transform="translate(128,128)"><g transform="matrix(0.9628 0.2703 -0.2703 0.9628 41.3411 -58.0147) translate(231.293,121.08149999999999) scale(0.5214666666666667)"><g data-icon="" transform="scale(0.9)">  <use xlink:href="#id-0.389560900551829" x="-50" y="-50"></use>
  </g></g></g></g><g data-idx="2" data-dup="" dx="-128" dy="128" style="transform-origin: 11.2832px 190.084px; animation: 1s linear 0s infinite normal forwards running beat-9624bb0d-def9-406c-922a-5fbd63db5a7d;"><g transform="translate(-128,128)"><g transform="matrix(-0.0456 0.999 -0.999 -0.0456 207.6542 -74.2389) translate(139.293,62.081500000000005) scale(0.5214666666666667)"><g data-icon="" transform="scale(0.9)">  <use xlink:href="#id-0.389560900551829" x="-50" y="-50"></use>
  </g></g></g></g><g data-idx="2" data-dup="" dx="128" dy="128" style="transform-origin: 267.283px 190.084px; animation: 1s linear 0s infinite normal forwards running beat-9624bb0d-def9-406c-922a-5fbd63db5a7d;"><g transform="translate(128,128)"><g transform="matrix(-0.0456 0.999 -0.999 -0.0456 207.6542 -74.2389) translate(139.293,62.081500000000005) scale(0.5214666666666667)"><g data-icon="" transform="scale(0.9)">  <use xlink:href="#id-0.389560900551829" x="-50" y="-50"></use>
  </g></g></g></g><g data-idx="3" data-dup="" dx="-128" dy="128" style="transform-origin: 76.0704px 156.274px; animation: 1s linear 0s infinite normal forwards running beat-9624bb0d-def9-406c-922a-5fbd63db5a7d;"><g transform="translate(-128,128)"><g transform="matrix(0.2398 -0.9708 0.9708 0.2398 127.6881 219.61) translate(204.074,28.271) scale(0.3916444444444444)"><g data-icon="" transform="scale(0.9)">  <use xlink:href="#id-0.389560900551829" x="-50" y="-50"></use>
  </g></g></g></g><g data-idx="3" data-dup="" dx="128" dy="128" style="transform-origin: 332.07px 156.274px; animation: 1s linear 0s infinite normal forwards running beat-9624bb0d-def9-406c-922a-5fbd63db5a7d;"><g transform="translate(128,128)"><g transform="matrix(0.2398 -0.9708 0.9708 0.2398 127.6881 219.61) translate(204.074,28.271) scale(0.3916444444444444)"><g data-icon="" transform="scale(0.9)">  <use xlink:href="#id-0.389560900551829" x="-50" y="-50"></use>
  </g></g></g></g><g data-idx="4" data-dup="" dx="-128" dy="128" style="transform-origin: 73.3084px 350.084px; animation: 1s linear 0s infinite normal forwards running beat-9624bb0d-def9-406c-922a-5fbd63db5a7d;"><g transform="translate(-128,128)"><g transform="matrix(0.5905 -0.8071 0.8071 0.5905 -96.797 253.4085) translate(201.293,222.0815) scale(0.5214666666666667)"><g data-icon="" transform="scale(0.9)">  <use xlink:href="#id-0.389560900551829" x="-50" y="-50"></use>
  </g></g></g></g><g data-idx="4" data-dup="" dx="128" dy="128" style="transform-origin: 329.308px 350.084px; animation: 1s linear 0s infinite normal forwards running beat-9624bb0d-def9-406c-922a-5fbd63db5a7d;"><g transform="translate(128,128)"><g transform="matrix(0.5905 -0.8071 0.8071 0.5905 -96.797 253.4085) translate(201.293,222.0815) scale(0.5214666666666667)"><g data-icon="" transform="scale(0.9)">  <use xlink:href="#id-0.389560900551829" x="-50" y="-50"></use>
  </g></g></g></g><g data-idx="5" data-dup="" dx="-128" dy="128" style="transform-origin: -19.4973px 335.17px; animation: 1s linear 0s infinite normal forwards running beat-9624bb0d-def9-406c-922a-5fbd63db5a7d;"><g transform="translate(-128,128)"><g transform="matrix(0.8618 0.5073 -0.5073 0.8618 120.0863 -26.4095) translate(108.50649999999999,207.1645) scale(0.44135555555555556)"><g data-icon="" transform="scale(0.9)">  <use xlink:href="#id-0.389560900551829" x="-50" y="-50"></use>
  </g></g></g></g><g data-idx="5" data-dup="" dx="128" dy="128" style="transform-origin: 236.503px 335.17px; animation: 1s linear 0s infinite normal forwards running beat-9624bb0d-def9-406c-922a-5fbd63db5a7d;"><g transform="translate(128,128)"><g transform="matrix(0.8618 0.5073 -0.5073 0.8618 120.0863 -26.4095) translate(108.50649999999999,207.1645) scale(0.44135555555555556)"><g data-icon="" transform="scale(0.9)">  <use xlink:href="#id-0.389560900551829" x="-50" y="-50"></use>
  </g></g></g></g><g data-idx="6" data-dup="" dx="-128" dy="128" style="transform-origin: -48.5432px 254.109px; animation: 1s linear 0s infinite normal forwards running beat-9624bb0d-def9-406c-922a-5fbd63db5a7d;"><g transform="translate(-128,128)"><g transform="matrix(0.9981 0.0609 -0.0609 0.9981 7.8271 -4.6047) translate(79.461,126.11449999999999) scale(0.43675555555555556)"><g data-icon="" transform="scale(0.9)">  <use xlink:href="#id-0.389560900551829" x="-50" y="-50"></use>
  </g></g></g></g><g data-idx="6" data-dup="" dx="128" dy="128" style="transform-origin: 207.457px 254.109px; animation: 1s linear 0s infinite normal forwards running beat-9624bb0d-def9-406c-922a-5fbd63db5a7d;"><g transform="translate(128,128)"><g transform="matrix(0.9981 0.0609 -0.0609 0.9981 7.8271 -4.6047) translate(79.461,126.11449999999999) scale(0.43675555555555556)"><g data-icon="" transform="scale(0.9)">  <use xlink:href="#id-0.389560900551829" x="-50" y="-50"></use>
  </g></g></g></g><g data-idx="7" data-dup="" dx="-128" dy="128" style="transform-origin: -67.5406px 160.111px; animation: 1s linear 0s infinite normal forwards running beat-9624bb0d-def9-406c-922a-5fbd63db5a7d;"><g transform="translate(-128,128)"><g transform="matrix(-0.7024 0.7118 -0.7118 -0.7024 125.7862 11.6317) translate(60.461,32.1145) scale(0.43675555555555556)"><g data-icon="" transform="scale(0.9)">  <use xlink:href="#id-0.389560900551829" x="-50" y="-50"></use>
  </g></g></g></g><g data-idx="7" data-dup="" dx="128" dy="128" style="transform-origin: 188.459px 160.111px; animation: 1s linear 0s infinite normal forwards running beat-9624bb0d-def9-406c-922a-5fbd63db5a7d;"><g transform="translate(128,128)"><g transform="matrix(-0.7024 0.7118 -0.7118 -0.7024 125.7862 11.6317) translate(60.461,32.1145) scale(0.43675555555555556)"><g data-icon="" transform="scale(0.9)">  <use xlink:href="#id-0.389560900551829" x="-50" y="-50"></use>
  </g></g></g></g><g data-idx="8" data-dup="" dx="-128" dy="128" style="transform-origin: -94.3946px 211.728px; animation: 1s linear 0s infinite normal forwards running beat-9624bb0d-def9-406c-922a-5fbd63db5a7d;"><g transform="translate(-128,128)"><g transform="matrix(0.8596 0.511 -0.511 0.8596 47.5053 -5.4135) translate(33.602,83.7265) scale(0.3879111111111111)"><g data-icon="" transform="scale(0.9)">  <use xlink:href="#id-0.389560900551829" x="-50" y="-50"></use>
  </g></g></g></g><g data-idx="8" data-dup="" dx="128" dy="128" style="transform-origin: 161.605px 211.728px; animation: 1s linear 0s infinite normal forwards running beat-9624bb0d-def9-406c-922a-5fbd63db5a7d;"><g transform="translate(128,128)"><g transform="matrix(0.8596 0.511 -0.511 0.8596 47.5053 -5.4135) translate(33.602,83.7265) scale(0.3879111111111111)"><g data-icon="" transform="scale(0.9)">  <use xlink:href="#id-0.389560900551829" x="-50" y="-50"></use>
  </g></g></g></g><g data-idx="9" data-dup="" dx="-128" dy="128" style="transform-origin: -83.8px 332.633px; animation: 1s linear 0s infinite normal forwards running beat-9624bb0d-def9-406c-922a-5fbd63db5a7d;"><g transform="translate(-128,128)"><g transform="matrix(0.5692 -0.8222 0.8222 0.5692 -149.2038 124.5031) translate(44.2025,204.6265) scale(0.5011777777777778)"><g data-icon="" transform="scale(0.9)">  <use xlink:href="#id-0.389560900551829" x="-50" y="-50"></use>
  </g></g></g></g><g data-idx="9" data-dup="" dx="128" dy="128" style="transform-origin: 172.2px 332.633px; animation: 1s linear 0s infinite normal forwards running beat-9624bb0d-def9-406c-922a-5fbd63db5a7d;"><g transform="translate(128,128)"><g transform="matrix(0.5692 -0.8222 0.8222 0.5692 -149.2038 124.5031) translate(44.2025,204.6265) scale(0.5011777777777778)"><g data-icon="" transform="scale(0.9)">  <use xlink:href="#id-0.389560900551829" x="-50" y="-50"></use>
  </g></g></g></g></g>
    </pattern>
  </defs>
  <rect x="0" y="0" width="1084" height="322" fill="url(#pid-0.07431760733723047)"></rect>
  </svg>